# xmcd CD database file
#
# Track frame offsets:
#	150
#	945
#	22027
#	23197
#	43402
#	61377
#	80997
#	94410
#	113507
#	132087
#	150277
#	151560
#	168112
#	188515
#	205995
#
# Disc length: 3040 seconds
#
# Revision: 13
# Processed by: cddbd v1.5.2PL0 Copyright (c) Steve Scherf et al.
# Submitted via: jetAudio 7
#
DISCID=ae0bde0f
DTITLE=David Tao - David Tao
DYEAR=1997
DGENRE=Pop
TTITLE0=Airport Take Off
TTITLE1=滄儂部腔10:30 (Airport in 10:30)
TTITLE2=Airport Arrival
TTITLE3=乾ㄛ竭潠等(I Love You)
TTITLE4=伈戽 (Blue Moon)
TTITLE5=坋呡(Our Love)
TTITLE6=咡景瑞 (Spring Wind)
TTITLE7=卼匐粥 (Bastard)
TTITLE8=岆岆準準 (Yes No Song)
TTITLE9=霜伈(Everything's Gone)
TTITLE10=Take 6 Minus 3
TTITLE11=陑觴滄 (Do I Do I)
TTITLE12=婬獗眕珂佽婬獗(Say Goodbye)
TTITLE13=霜伈-詩唳 (Blue Moon Suite)
TTITLE14=Answering Machine
EXTD=YEAR: 1997
EXTT0=
EXTT1=
EXTT2=
EXTT3=
EXTT4=
EXTT5=
EXTT6=
EXTT7=
EXTT8=
EXTT9=
EXTT10=
EXTT11=
EXTT12=
EXTT13=
EXTT14=
PLAYORDER=
